<svg width="369" height="72" viewBox="0 0 369 72" fill="none" xmlns="http://www.w3.org/2000/svg">
<g clip-path="url(#clip0_633_4029)">
<path d="M16.0042 32.0285L9.68834 20.4944L7.69151 23.8045V32.0285H0V0.515625H7.69151V13.8446L15.5309 0.515625H24.4649L14.5399 15.2569L25.0861 32.0285H16.0042Z" fill="white"/>
<path d="M24.3203 16.3008C24.3203 6.79689 29.6008 0 38.1502 0C46.6996 0 51.9801 6.79689 51.9801 16.3008C51.9801 25.8047 46.6996 32.6016 38.1502 32.6016C29.6008 32.6016 24.3203 25.8047 24.3203 16.3008ZM44.1851 16.3008C44.1851 10.8132 42.0404 6.75276 38.1502 6.75276C34.2601 6.75276 32.1597 10.8132 32.1597 16.3008C32.1597 21.7883 34.3045 25.8488 38.1502 25.8488C41.996 25.8488 44.1851 21.7442 44.1851 16.3008Z" fill="white"/>
<path d="M79.1778 32.0285V13.315L72.7584 32.0285H69.7705L63.4103 13.315V32.0285H55.7188V0.515625H65.9396L71.3088 16.2573L76.7225 0.515625H86.8398V32.0285H79.1778Z" fill="white"/>
<path d="M115.326 32.0285V13.315L108.907 32.0285H105.919L99.5587 13.315V32.0285H91.8672V0.515625H102.088L107.457 16.2573L112.871 0.515625H122.988V32.0285H115.326Z" fill="white"/>
<path d="M128.016 20.8327V0.515625H135.766V20.8769C135.766 24.0399 137.423 25.8789 140.47 25.8789C143.517 25.8789 145.129 24.0399 145.129 20.8769V0.515625H152.88V20.8327C152.88 28.3064 148.028 32.6023 140.485 32.6023C132.941 32.6023 128.03 28.3064 128.03 20.8327H128.016Z" fill="white"/>
<path d="M175.19 32.0285L165.59 15.4482V32.0285H157.898V0.515625H165.738L174.805 16.3015V0.515625H182.452V32.0285H175.19Z" fill="white"/>
<path d="M187.539 32.0285V0.515625H195.231V32.0285H187.539Z" fill="white"/>
<path d="M216.278 32.0285L209.962 20.4944L207.965 23.8045V32.0285H200.273V0.515625H207.965V13.8446L215.804 0.515625H224.738L214.813 15.2569L225.36 32.0285H216.278Z" fill="white"/>
<path d="M244.416 32.0285L243.232 27.203H234.254L233.071 32.0285H224.758L234.121 0.515625H243.38L252.743 32.0285H244.416ZM238.765 8.44533L235.777 20.5385H241.724L238.78 8.44533H238.765Z" fill="white"/>
<path d="M257.899 32.0285V7.18011H251.109V0.515625H272.35V7.18011H265.605V32.0285H257.899Z" fill="white"/>
<path d="M275.812 32.0285V0.515625H283.504V32.0285H275.812Z" fill="white"/>
<path d="M287.203 16.3008C287.203 6.79689 292.484 0 301.033 0C309.582 0 314.863 6.79689 314.863 16.3008C314.863 25.8047 309.582 32.6016 301.033 32.6016C292.484 32.6016 287.203 25.8047 287.203 16.3008ZM307.068 16.3008C307.068 10.8132 304.923 6.75276 301.033 6.75276C297.143 6.75276 295.043 10.8132 295.043 16.3008C295.043 21.7883 297.187 25.8488 301.033 25.8488C304.879 25.8488 307.068 21.7442 307.068 16.3008Z" fill="white"/>
<path d="M335.9 32.0285L326.301 15.4482V32.0285H318.609V0.515625H326.449L335.516 16.3015V0.515625H343.163V32.0285H335.9Z" fill="white"/>
<path d="M346.21 28.4822L349.864 22.6269C351.712 24.613 354.523 25.9812 357.614 25.9812C359.848 25.9812 361.223 24.8484 361.223 23.2889C361.223 18.7577 347.157 20.6408 347.157 9.68043C347.157 4.61953 351.106 0 358.28 0C362.274 0 365.838 1.27993 368.442 3.5897L364.877 9.25378C362.924 7.45893 360.41 6.64978 357.984 6.64978C356.032 6.64978 354.996 7.63547 354.996 9.06253C354.996 13.226 369.004 11.9461 369.004 22.5239C369.004 28.5264 364.818 32.5868 357.644 32.5868C352.511 32.5868 348.858 31.0274 346.195 28.4822H346.21Z" fill="white"/>
<path d="M16.4757 71.3996L7.21632 57.5116L4.59825 61.2925V71.3996H0.796875V39.8867H4.59825V56.2316L15.6622 39.8867H20.1292L9.53857 54.8634L21.0315 71.3996H16.4757Z" fill="white"/>
<path d="M22.125 55.6562C22.125 46.5349 26.3997 39.3555 34.0912 39.3555C41.7827 39.3555 46.1018 46.5349 46.1018 55.6562C46.1018 64.7776 41.7827 71.957 34.0912 71.957C26.3997 71.957 22.125 64.7776 22.125 55.6562ZM42.2265 55.6562C42.2265 48.3739 39.3717 42.7098 34.106 42.7098C28.8403 42.7098 26.0299 48.3739 26.0299 55.6562C26.0299 62.9386 28.8846 68.6027 34.106 68.6027C39.3273 68.6027 42.2265 62.8357 42.2265 55.6562Z" fill="white"/>
<path d="M68.5418 71.3996L55.4811 47.9194V71.3996H51.6797V39.8867H55.4811L68.4087 62.8961V39.8867H72.2101V71.3996H68.5418Z" fill="white"/>
<path d="M77.757 55.6562C77.757 45.917 82.6529 39.3555 90.0634 39.3555C94.7227 39.3555 97.6218 41.9595 99.4707 45.3138L96.4237 46.8732C95.0925 44.4164 92.9625 42.7098 90.0634 42.7098C84.9752 42.7098 81.6471 47.9472 81.6471 55.6562C81.6471 63.3653 84.9752 68.6027 90.0634 68.6027C92.7258 68.6027 94.8558 67.3228 95.9947 65.9546V58.5839H88.4363V55.2737H99.6038V67.3669C97.2816 70.2504 94.0423 72.0012 90.0486 72.0012C82.6381 72.0012 77.7422 65.3808 77.7422 55.6562H77.757Z" fill="white"/>
<path d="M119.983 71.3996L113.904 58.7768H109.348V71.3996H105.547V39.8867H115.235C120.323 39.8867 123.933 43.5206 123.933 49.2876C123.933 55.0547 120.752 57.6587 117.617 58.2177L124.273 71.3996H119.983ZM120.028 49.3318C120.028 45.742 118.075 43.1822 114.806 43.1822H109.348V55.4666H114.806C118.09 55.4666 120.028 52.9215 120.028 49.317V49.3318Z" fill="white"/>
<path d="M129.719 71.3996V39.8867H146.019V43.1969H133.52V53.6423H145.679V56.9525H133.52V68.06H146.019V71.4143H129.719V71.3996Z" fill="white"/>
<path d="M149.672 67.9848L151.757 65.1013C153.37 67.0433 156.032 68.6027 159.124 68.6027C163.117 68.6027 164.922 66.1458 164.922 63.4536C164.922 55.8034 150.619 57.7895 150.619 47.6236C150.619 42.7981 154.42 39.3555 159.686 39.3555C163.206 39.3555 166.046 40.5324 168.146 42.6656L166.149 45.505C164.434 43.6072 162.111 42.7245 159.597 42.7245C156.698 42.7245 154.464 44.6076 154.464 47.447C154.464 54.1115 168.768 52.6403 168.768 63.2329C168.768 67.8671 165.676 71.9717 159.124 71.9717C154.997 71.9717 151.802 70.4123 149.672 67.9995V67.9848Z" fill="white"/>
<path d="M172.008 67.9848L174.093 65.1013C175.706 67.0433 178.368 68.6027 181.459 68.6027C185.453 68.6027 187.258 66.1458 187.258 63.4536C187.258 55.8034 172.954 57.7895 172.954 47.6236C172.954 42.7981 176.756 39.3555 182.022 39.3555C185.542 39.3555 188.382 40.5324 190.482 42.6656L188.485 45.505C186.77 43.6072 184.447 42.7245 181.933 42.7245C179.034 42.7245 176.8 44.6076 176.8 47.447C176.8 54.1115 191.103 52.6403 191.103 63.2329C191.103 67.8671 188.012 71.9717 181.459 71.9717C177.333 71.9717 174.138 70.4123 172.008 67.9995V67.9848Z" fill="white"/>
</g>
<defs>
<clipPath id="clip0_633_4029">
<rect width="369" height="72" fill="white"/>
</clipPath>
</defs>
</svg>
