<svg xmlns="http://www.w3.org/2000/svg" width="460" height="180" viewBox="0 0 460 180"><title>mut</title><rect width="460" height="180" fill="none"/><path d="M128.23,171.69V72.91L94.55,171.69H78.84L45.41,72.91v98.78H5V5.31H58.63L86.82,88.38,115.26,5.31h53.13V171.69Zm66.6-59.11V5.31h40.66V112.82c0,16.72,8.73,26.45,24.69,26.45,15.72,0,24.45-9.73,24.45-26.45V5.31h40.66V112.58c0,39.41-25.45,62.11-65.11,62.11S194.83,152,194.83,112.58Zm184.34,59.11V40.48H343.5V5.31H455V40.48H419.58V171.69Z" fill="none" stroke="#fff" stroke-miterlimit="10" stroke-width="2.99"/></svg>