<svg width="327" height="131" viewBox="0 0 327 131" fill="none" xmlns="http://www.w3.org/2000/svg">
<g filter="url(#filter0_d_633_4026)">
<path d="M91.1727 120.534V48.973L67.3476 120.534H56.2343L32.586 48.973V120.534H4V0H41.9378L61.8794 60.1803L81.9978 0H119.582V120.534H91.1727ZM138.285 77.7121V0H167.048V77.8859C167.048 89.9988 173.224 97.0477 184.514 97.0477C195.634 97.0477 201.81 89.9988 201.81 77.8859V0H230.573V77.7121C230.573 106.263 212.569 122.708 184.514 122.708C156.459 122.708 138.285 106.27 138.285 77.7121ZM268.687 120.534V25.479H243.454V0H322.329V25.479H297.273V120.534H268.687Z" fill="#FFFDF3"/>
</g>
<defs>
<filter id="filter0_d_633_4026" x="0" y="0" width="326.328" height="130.707" filterUnits="userSpaceOnUse" color-interpolation-filters="sRGB">
<feFlood flood-opacity="0" result="BackgroundImageFix"/>
<feColorMatrix in="SourceAlpha" type="matrix" values="0 0 0 0 0 0 0 0 0 0 0 0 0 0 0 0 0 0 127 0" result="hardAlpha"/>
<feOffset dy="4"/>
<feGaussianBlur stdDeviation="2"/>
<feComposite in2="hardAlpha" operator="out"/>
<feColorMatrix type="matrix" values="0 0 0 0 0 0 0 0 0 0 0 0 0 0 0 0 0 0 0.25 0"/>
<feBlend mode="normal" in2="BackgroundImageFix" result="effect1_dropShadow_633_4026"/>
<feBlend mode="normal" in="SourceGraphic" in2="effect1_dropShadow_633_4026" result="shape"/>
</filter>
</defs>
</svg>
